<svg version="1.1" id="Layer_1" xmlns="http://www.w3.org/2000/svg" xmlns:xlink="http://www.w3.org/1999/xlink" x="0px" y="0px"
	 width="100%" viewBox="0 0 200 200" enable-background="new 0 0 200 200" xml:space="preserve">
<path fill="#E33116" opacity="1.000000" stroke="none" 
	d="
M116.000000,201.000000 
	C77.357201,201.000000 39.214397,201.000000 1.035799,201.000000 
	C1.035799,134.398911 1.035799,67.797783 1.035799,1.098330 
	C67.559296,1.098330 134.118790,1.098330 200.839142,1.098330 
	C200.839142,67.666351 200.839142,134.333145 200.839142,201.000000 
	C172.798065,201.000000 144.649033,201.000000 116.000000,201.000000 
M180.249039,101.498100 
	C180.249039,96.792015 180.249039,92.085938 180.249039,87.217850 
	C177.679047,87.539230 176.067276,87.740784 174.413071,87.947647 
	C172.265976,81.341492 170.189804,74.953590 168.097351,68.515564 
	C169.798325,67.530861 171.355606,66.629356 173.229568,65.544518 
	C167.754501,58.043926 162.421204,50.737530 156.923203,43.205517 
	C154.889618,44.810551 153.390213,45.993973 152.163696,46.962006 
	C146.659500,42.972260 141.438690,39.187920 136.163849,35.364426 
	C136.893539,33.688622 137.655106,31.939619 138.569550,29.839481 
	C129.661041,26.974487 121.176109,24.245718 112.562309,21.475504 
	C112.006317,23.692762 111.572418,25.423130 111.129143,27.190918 
	C104.285683,27.190918 97.694725,27.190918 91.002060,27.190918 
	C90.486900,25.282190 90.020973,23.555872 89.459389,21.475124 
	C80.819557,24.273169 72.356598,27.013933 65.205399,29.329880 
	C64.444954,32.763489 64.704369,35.889580 63.298420,37.133705 
	C59.099976,40.848919 54.248806,43.826508 49.453457,47.233631 
	C48.108307,46.115463 46.637886,44.893158 44.911343,43.457951 
	C39.475903,50.934692 34.231636,58.148468 28.884575,65.503639 
	C30.837511,66.718048 32.473629,67.735451 33.947685,68.652069 
	C31.796770,75.248802 29.754219,81.513176 27.654184,87.953850 
	C25.821556,87.748566 24.080681,87.553558 22.270815,87.350830 
	C22.270815,96.657059 22.270815,105.676315 22.270815,114.896858 
	C24.329542,114.579201 25.940590,114.330620 27.669905,114.063789 
	C29.790155,120.648682 31.850357,127.047073 33.966450,133.619049 
	C32.317245,134.555771 30.747881,135.447159 28.846334,136.527206 
	C34.317631,144.014511 39.664368,151.331360 45.077679,158.739319 
	C46.874126,157.130066 48.220085,155.924362 49.223804,155.025238 
	C54.864552,158.995895 60.259422,162.793488 65.871414,166.743912 
	C65.238823,168.271744 64.508461,170.035690 63.603310,172.221786 
	C72.455109,175.070541 80.913391,177.792633 89.445290,180.538422 
	C90.073875,178.298370 90.556274,176.579300 91.011093,174.958496 
	C97.886162,174.958496 104.466599,174.958496 111.172501,174.958496 
	C111.672829,176.874207 112.110336,178.549362 112.643791,180.591904 
	C121.473618,177.714890 129.939682,174.956406 138.606750,172.132431 
	C137.609344,169.869537 136.842361,168.129471 136.258057,166.803802 
	C141.880249,162.649750 147.173126,158.739014 152.571243,154.750534 
	C154.034866,155.937225 155.519333,157.140808 157.230286,158.528030 
	C162.667389,151.023773 167.881073,143.827881 173.213486,136.468094 
	C171.151123,135.288132 169.588715,134.394211 167.928482,133.444321 
	C169.323715,129.538162 170.783340,125.843285 171.963318,122.061172 
	C173.994766,115.549927 173.921692,115.527130 180.249161,113.906494 
	C180.249161,110.143738 180.249161,106.317734 180.249039,101.498100 
z"/>
<path fill="#FDF6F4" opacity="1.000000" stroke="none" 
	d="
M180.249100,101.994919 
	C180.249161,106.317734 180.249161,110.143738 180.249161,113.906494 
	C173.921692,115.527130 173.994766,115.549927 171.963318,122.061172 
	C170.783340,125.843285 169.323715,129.538162 167.928482,133.444321 
	C169.588715,134.394211 171.151123,135.288132 173.213486,136.468094 
	C167.881073,143.827881 162.667389,151.023773 157.230286,158.528030 
	C155.519333,157.140808 154.034866,155.937225 152.571243,154.750534 
	C147.173126,158.739014 141.880249,162.649750 136.258057,166.803802 
	C136.842361,168.129471 137.609344,169.869537 138.606750,172.132431 
	C129.939682,174.956406 121.473618,177.714890 112.643791,180.591904 
	C112.110336,178.549362 111.672829,176.874207 111.172501,174.958496 
	C104.466599,174.958496 97.886162,174.958496 91.011093,174.958496 
	C90.556274,176.579300 90.073875,178.298370 89.445290,180.538422 
	C80.913391,177.792633 72.455109,175.070541 63.603310,172.221786 
	C64.508461,170.035690 65.238823,168.271744 65.871414,166.743912 
	C60.259422,162.793488 54.864552,158.995895 49.223804,155.025238 
	C48.220085,155.924362 46.874126,157.130066 45.077679,158.739319 
	C39.664368,151.331360 34.317631,144.014511 28.846334,136.527206 
	C30.747881,135.447159 32.317245,134.555771 33.966450,133.619049 
	C31.850357,127.047073 29.790155,120.648682 27.669905,114.063789 
	C25.940590,114.330620 24.329542,114.579201 22.270815,114.896858 
	C22.270815,105.676315 22.270815,96.657059 22.270815,87.350830 
	C24.080681,87.553558 25.821556,87.748566 27.654184,87.953850 
	C29.754219,81.513176 31.796770,75.248802 33.947685,68.652069 
	C32.473629,67.735451 30.837511,66.718048 28.884575,65.503639 
	C34.231636,58.148468 39.475903,50.934692 44.911343,43.457951 
	C46.637886,44.893158 48.108307,46.115463 49.453457,47.233631 
	C54.248806,43.826508 59.099976,40.848919 63.298420,37.133705 
	C64.704369,35.889580 64.444954,32.763489 65.205399,29.329880 
	C72.356598,27.013933 80.819557,24.273169 89.459389,21.475124 
	C90.020973,23.555872 90.486900,25.282190 91.002060,27.190918 
	C97.694725,27.190918 104.285683,27.190918 111.129143,27.190918 
	C111.572418,25.423130 112.006317,23.692762 112.562309,21.475504 
	C121.176109,24.245718 129.661041,26.974487 138.569550,29.839481 
	C137.655106,31.939619 136.893539,33.688622 136.163849,35.364426 
	C141.438690,39.187920 146.659500,42.972260 152.163696,46.962006 
	C153.390213,45.993973 154.889618,44.810551 156.923203,43.205517 
	C162.421204,50.737530 167.754501,58.043926 173.229568,65.544518 
	C171.355606,66.629356 169.798325,67.530861 168.097351,68.515564 
	C170.189804,74.953590 172.265976,81.341492 174.413071,87.947647 
	C176.067276,87.740784 177.679047,87.539230 180.249039,87.217850 
	C180.249039,92.085938 180.249039,96.792015 180.249100,101.994919 
M105.178650,36.068066 
	C96.034584,37.467541 86.309174,37.328316 77.844604,40.526299 
	C35.662853,56.462902 25.144018,106.630081 47.466179,137.498932 
	C60.798080,155.935318 78.159897,165.697739 100.554550,165.870392 
	C123.570229,166.047852 141.638702,156.322433 154.795456,137.048767 
	C165.532883,121.319229 168.283356,104.403358 164.275162,86.216637 
	C158.476807,59.907219 136.686310,39.855259 105.178650,36.068066 
z"/>
<path fill="#E13218" opacity="1.000000" stroke="none" 
	d="
M105.636917,36.097153 
	C136.686310,39.855259 158.476807,59.907219 164.275162,86.216637 
	C168.283356,104.403358 165.532883,121.319229 154.795456,137.048767 
	C141.638702,156.322433 123.570229,166.047852 100.554550,165.870392 
	C78.159897,165.697739 60.798080,155.935318 47.466179,137.498932 
	C25.144018,106.630081 35.662853,56.462902 77.844604,40.526299 
	C86.309174,37.328316 96.034584,37.467541 105.636917,36.097153 
M91.928848,123.923447 
	C91.928848,123.923447 91.783524,123.904053 92.254311,123.634361 
	C92.460251,123.341774 92.666199,123.049179 92.880493,122.895691 
	C92.880493,122.895691 92.741165,122.898254 93.247490,122.545624 
	C93.466705,121.989281 93.685928,121.432945 93.939438,120.940086 
	C93.939438,120.940086 93.867363,120.943428 94.481926,120.724800 
	C95.310585,120.473480 96.139244,120.222160 96.986526,120.682182 
	C97.289360,121.788261 97.592201,122.894341 98.188370,124.425385 
	C98.491821,124.545769 98.795265,124.666153 99.917664,124.957191 
	C101.586998,124.908127 103.256340,124.859062 105.384575,124.949402 
	C105.384575,124.949402 105.864799,124.946602 106.411392,124.952690 
	C106.593605,124.951820 106.775810,124.950951 107.475151,124.742126 
	C107.975853,124.497032 108.476562,124.251930 109.284332,124.353470 
	C109.507919,124.568932 109.755211,124.752449 110.544182,124.976608 
	C110.712578,124.931435 110.880974,124.886269 111.888191,124.960243 
	C113.580696,124.934441 115.273193,124.908630 117.624710,124.850578 
	C117.764465,124.222099 117.904221,123.593620 118.481590,122.272057 
	C118.657684,120.463669 118.976089,118.656113 118.986565,116.846764 
	C119.050232,105.853363 119.043739,94.859558 119.503220,84.587227 
	C119.663651,85.227676 119.950035,85.865036 119.965820,86.509033 
	C120.254471,98.281960 120.477081,110.056686 120.831696,121.827477 
	C120.863152,122.871544 121.709633,123.891052 123.092010,124.958229 
	C130.319534,124.958229 137.547058,124.958229 145.252686,124.958229 
	C145.252686,117.927010 145.252686,111.568108 145.252686,104.790482 
	C146.735382,105.247993 148.378586,105.423775 148.434280,105.821770 
	C149.309311,112.072945 149.979828,118.352760 150.704666,124.689850 
	C152.629257,124.689850 154.683945,124.689850 156.693863,124.689850 
	C158.457703,109.716431 157.756363,105.752937 154.126007,103.302376 
	C155.223129,99.610809 156.539047,96.459099 157.019516,93.184807 
	C157.446289,90.276573 156.946182,87.232323 156.822144,83.527061 
	C156.012161,82.746788 155.202194,81.966507 154.176529,81.232101 
	C154.176529,81.232101 154.065689,81.041489 153.581253,80.427826 
	C151.896042,79.942482 150.220184,79.080223 148.523972,79.038155 
	C141.796143,78.871330 135.056168,79.125893 128.332458,78.889336 
	C124.699387,78.761528 121.538101,79.272987 119.030663,81.149994 
	C119.023964,76.340721 119.145561,71.526848 118.973595,66.723495 
	C118.809685,62.145504 118.339569,57.578480 117.697830,52.595497 
	C117.478668,52.333366 117.259499,52.071236 116.720459,51.199604 
	C114.569916,49.484818 112.606041,49.306473 111.155472,51.991600 
	C111.155472,51.991600 111.067566,52.171791 110.507133,52.123650 
	C110.418747,52.445679 110.330360,52.767708 110.058372,53.193008 
	C110.058372,53.193008 109.947914,53.013634 109.571129,53.284122 
	C109.339760,53.493359 109.140091,53.729408 108.326859,53.994003 
	C107.896698,53.992336 107.466545,53.990669 106.880913,53.428925 
	C106.542152,52.969814 106.203392,52.510704 105.375862,52.066231 
	C105.375862,52.066231 104.908218,52.209129 104.836823,52.035095 
	C104.836823,52.035095 105.008453,51.958099 104.730614,51.315956 
	C102.584427,49.501823 100.609306,49.189564 99.172714,52.038261 
	C99.172714,52.038261 99.110435,52.226513 98.588585,52.246422 
	C98.359818,52.504917 98.131042,52.763412 97.481415,53.726646 
	C97.309479,59.494846 97.137543,65.263046 96.208588,71.019241 
	C95.451881,71.009857 94.695175,71.000481 93.179840,70.638573 
	C88.616180,70.428146 84.045921,70.308838 79.490883,69.979233 
	C75.665833,69.702454 74.306496,71.313522 75.031509,75.581429 
	C75.051163,75.997299 75.070808,76.413162 74.544250,77.297607 
	C73.025497,78.225189 71.506744,79.152771 69.961708,80.279205 
	C69.961708,80.279205 69.761124,80.278099 69.068733,80.645027 
	C68.405304,83.829773 67.741867,87.014526 67.033760,90.612701 
	C67.033760,90.612701 66.883095,91.000290 66.510582,91.655121 
	C66.372101,93.165047 66.233620,94.674980 66.038513,96.999870 
	C65.725815,98.978180 65.413124,100.956482 65.100433,102.934792 
	C64.635628,102.953163 64.170830,102.971535 63.706028,102.989914 
	C63.085873,100.286438 62.465717,97.582962 62.189571,94.536583 
	C61.934715,94.037399 61.679855,93.538216 61.392342,92.758675 
	C61.392342,92.758675 61.671070,92.714172 61.830894,91.714119 
	C61.264011,87.825256 63.943714,83.343414 59.340324,80.118462 
	C59.340324,80.118462 59.022232,79.922478 58.562069,79.346321 
	C54.685062,79.527107 50.808056,79.707893 46.483742,80.128914 
	C46.277649,80.393906 46.071552,80.658897 45.440151,81.650002 
	C45.109795,94.117470 44.699444,106.583878 44.532394,119.053528 
	C44.506321,120.999985 45.588474,122.961296 46.968369,124.961647 
	C48.744423,124.657822 50.520477,124.353996 52.730854,123.338066 
	C52.838139,117.453117 52.830788,111.562340 53.129513,105.687126 
	C53.208855,104.126648 54.228130,102.613953 54.945637,101.700706 
	C54.950119,102.123222 54.954601,102.545731 54.713169,103.351868 
	C54.868950,103.889603 55.024734,104.427330 55.454781,105.712418 
	C56.637314,112.159531 57.819851,118.606644 59.681355,125.484367 
	C69.082191,127.044807 70.327789,126.104256 69.860435,118.016319 
	C69.860435,118.016319 69.776131,117.852531 70.332161,117.360611 
	C71.174339,114.270836 72.016518,111.181061 73.117409,107.142120 
	C73.945480,112.476715 74.602531,116.709572 75.141289,120.903488 
	C75.141289,120.903488 75.186020,120.787247 75.222328,121.413994 
	C75.602409,121.881165 75.982498,122.348328 76.263702,122.814629 
	C76.263702,122.814629 76.276222,122.716545 76.204048,123.424301 
	C76.464798,126.262733 78.045647,126.163460 80.518456,125.129662 
	C80.518456,125.129662 80.935738,125.367516 81.254211,125.943329 
	C84.395500,127.467896 87.485909,128.543610 90.159309,124.746689 
	C90.159309,124.746689 90.374458,124.826561 90.984703,124.620689 
	C91.304619,124.339684 91.624542,124.058678 91.928848,123.923447 
z"/>
<path fill="#FEF5F2" opacity="1.000000" stroke="none" 
	d="
M59.022232,79.922478 
	C59.022232,79.922478 59.340324,80.118462 59.575729,80.542160 
	C60.431118,84.881966 61.051094,88.798073 61.671070,92.714172 
	C61.671070,92.714172 61.392342,92.758675 61.369827,93.225220 
	C61.513393,94.087669 61.679482,94.483574 61.845566,94.879486 
	C62.465717,97.582962 63.085873,100.286438 63.706028,102.989914 
	C64.170830,102.971535 64.635628,102.953163 65.100433,102.934792 
	C65.413124,100.956482 65.725815,98.978180 66.429855,96.402008 
	C66.841827,94.202858 66.862465,92.601570 66.883095,91.000290 
	C66.883095,91.000290 67.033760,90.612701 67.411072,90.230972 
	C68.445961,86.658859 69.103539,83.468475 69.761124,80.278099 
	C69.761124,80.278099 69.961708,80.279205 70.438889,80.178413 
	C74.507919,80.077621 78.099762,80.077621 82.025558,80.077621 
	C82.025558,91.550110 81.937233,102.350235 82.101135,113.146530 
	C82.133362,115.269585 80.581062,118.786720 84.544357,118.840118 
	C85.291641,118.850182 86.703896,115.005081 86.760574,112.910530 
	C87.008163,103.760826 86.856964,94.600616 86.881485,85.444305 
	C86.886169,83.696564 87.030716,81.949203 87.104294,80.342133 
	C89.688873,80.342133 91.627907,80.342133 93.867363,80.342133 
	C93.867363,94.064804 93.867363,107.504112 93.867363,120.943428 
	C93.867363,120.943428 93.939438,120.940086 93.672241,121.079971 
	C93.183754,121.779320 92.962463,122.338791 92.741165,122.898254 
	C92.741165,122.898254 92.880493,122.895691 92.610725,122.923981 
	C92.155151,123.269539 91.969345,123.586800 91.783524,123.904053 
	C91.783524,123.904053 91.928848,123.923447 91.612747,123.925102 
	C90.989250,124.226692 90.681847,124.526619 90.374451,124.826553 
	C90.374458,124.826561 90.159309,124.746689 89.712341,124.847160 
	C86.488823,125.087601 83.712280,125.227562 80.935738,125.367523 
	C80.935738,125.367516 80.518456,125.129662 80.000626,124.972351 
	C78.413940,124.115540 77.345078,123.416046 76.276222,122.716545 
	C76.276222,122.716545 76.263702,122.814629 76.246689,122.516861 
	C75.881798,121.741806 75.533913,121.264526 75.186020,120.787247 
	C75.186020,120.787247 75.141289,120.903488 75.170975,120.454025 
	C75.200668,111.719109 75.200668,103.433655 75.200668,95.148209 
	C74.481026,95.109467 73.761383,95.070732 73.041733,95.031998 
	C71.953201,102.638840 70.864662,110.245689 69.776131,117.852531 
	C69.776131,117.852531 69.860435,118.016319 69.609726,118.255417 
	C68.983688,120.561760 68.608368,122.629005 68.168144,125.053757 
	C64.889297,125.053757 61.945839,125.053757 59.002388,125.053757 
	C57.819851,118.606644 56.637314,112.159531 55.379524,105.000244 
	C55.189209,103.848129 55.074146,103.408188 54.959084,102.968246 
	C54.954601,102.545731 54.950119,102.123222 54.954811,100.983894 
	C54.388783,97.130280 53.813576,93.993469 53.238373,90.856667 
	C52.924427,90.908966 52.610477,90.961258 52.296532,91.013557 
	C52.296532,102.025764 52.296532,113.037964 52.296532,124.050171 
	C50.520477,124.353996 48.744423,124.657822 46.519844,124.477859 
	C46.002697,109.637352 45.934074,95.280617 45.865456,80.923889 
	C46.071552,80.658897 46.277649,80.393906 47.170532,80.086617 
	C51.578960,80.003708 55.300598,79.963089 59.022232,79.922478 
z"/>
<path fill="#FEF6F2" opacity="1.000000" stroke="none" 
	d="
M154.065689,81.041489 
	C154.065689,81.041489 154.176529,81.232101 154.441345,81.505692 
	C155.422501,82.602226 156.138855,83.425163 156.855194,84.248108 
	C156.946182,87.232323 157.446289,90.276573 157.019516,93.184807 
	C156.539047,96.459099 155.223129,99.610809 154.126007,103.302376 
	C157.756363,105.752937 158.457703,109.716431 156.693863,124.689850 
	C154.683945,124.689850 152.629257,124.689850 150.704666,124.689850 
	C149.979828,118.352760 149.309311,112.072945 148.434280,105.821770 
	C148.378586,105.423775 146.735382,105.247993 145.252686,104.790482 
	C145.252686,111.568108 145.252686,117.927010 145.252686,124.958229 
	C137.547058,124.958229 130.319534,124.958229 122.574112,124.479782 
	C122.056213,109.482597 122.056213,94.963844 122.056213,80.385284 
	C126.611000,80.385284 130.511322,80.385284 134.936920,80.385284 
	C134.598373,82.497406 134.320892,84.228539 133.628662,85.940231 
	C131.880875,86.403267 130.547852,86.885750 129.334824,87.324799 
	C129.334824,91.300766 129.334824,95.143227 129.334824,99.191322 
	C131.279892,99.296417 132.891373,99.383492 134.536957,99.848953 
	C134.633270,101.748299 134.695480,103.269257 134.446869,105.021072 
	C128.847992,106.729683 127.920769,108.641724 129.008942,116.141060 
	C129.720291,121.043350 133.421997,118.730476 136.476135,118.985764 
	C137.223343,117.474327 137.814117,115.960205 137.828842,114.440506 
	C137.920547,104.973656 137.883453,95.505562 137.888626,86.037880 
	C137.889664,84.140686 137.888779,82.243492 137.888779,79.630905 
	C143.906616,80.155647 148.986145,80.598564 154.065689,81.041489 
M145.091064,98.763481 
	C148.272324,100.979240 149.642105,99.220520 149.928192,96.267227 
	C150.211746,93.340202 149.990219,90.364250 149.990219,87.174835 
	C148.063873,87.174835 146.689758,87.174835 144.994034,87.174835 
	C144.994034,90.945717 144.994034,94.419945 145.091064,98.763481 
z"/>
<path fill="#FEFBF9" opacity="1.000000" stroke="none" 
	d="
M104.925674,124.809998 
	C103.256340,124.859062 101.586998,124.908127 99.519501,124.417572 
	C99.117699,99.994148 99.114067,76.110329 99.110435,52.226513 
	C99.110435,52.226513 99.172714,52.038261 99.509056,52.036972 
	C101.566414,52.009823 103.287437,51.983963 105.008453,51.958099 
	C105.008453,51.958099 104.836823,52.035095 104.870621,52.576904 
	C104.911499,77.015808 104.918587,100.912910 104.925674,124.809998 
z"/>
<path fill="#FEFCF9" opacity="1.000000" stroke="none" 
	d="
M116.965698,124.882828 
	C115.273193,124.908630 113.580696,124.934441 111.432014,124.443604 
	C110.942444,103.038246 110.928314,82.149452 110.846230,61.260929 
	C110.837898,59.142391 110.420143,57.025463 110.164215,54.588867 
	C110.073326,53.851173 110.010620,53.432404 109.947914,53.013634 
	C109.947914,53.013634 110.058372,53.193008 110.340118,53.042423 
	C110.842682,52.696541 110.991249,52.456524 111.067566,52.171791 
	C111.067566,52.171791 111.155472,51.991600 111.480499,52.004631 
	C113.206032,52.053185 114.606522,52.088707 116.146408,52.510208 
	C116.460518,55.196156 116.778252,57.495533 116.787727,59.796177 
	C116.877045,81.491608 116.913788,103.187248 116.965698,124.882828 
z"/>
<path fill="#D3402D" opacity="1.000000" stroke="none" 
	d="
M94.174644,120.834114 
	C93.867363,107.504112 93.867363,94.064804 93.867363,80.342133 
	C91.627907,80.342133 89.688873,80.342133 87.104294,80.342133 
	C87.030716,81.949203 86.886169,83.696564 86.881485,85.444305 
	C86.856964,94.600616 87.008163,103.760826 86.760574,112.910530 
	C86.703896,115.005081 85.291641,118.850182 84.544357,118.840118 
	C80.581062,118.786720 82.133362,115.269585 82.101135,113.146530 
	C81.937233,102.350235 82.025558,91.550110 82.025558,80.077621 
	C78.099762,80.077621 74.507919,80.077621 70.452026,80.078979 
	C71.506744,79.152771 73.025497,78.225189 75.275711,77.108315 
	C81.001945,76.579590 85.996719,76.240158 91.307991,75.862320 
	C92.045654,75.772141 92.466827,75.720367 93.234039,75.652748 
	C93.699051,74.771667 93.818024,73.906425 93.988251,72.701294 
	C94.005829,71.904633 93.972145,71.447868 93.938469,70.991104 
	C94.695175,71.000481 95.451881,71.009857 96.585602,71.349335 
	C96.956108,72.112381 96.949608,72.545334 96.635628,73.112656 
	C94.601616,75.998543 92.643990,78.769089 96.969345,81.394730 
	C96.971237,82.509995 96.971512,83.253517 96.752335,84.346794 
	C96.352081,92.743500 96.064011,100.790184 96.045227,108.837509 
	C96.038094,111.898621 96.649704,114.961166 96.978592,118.347908 
	C96.974548,119.105453 96.971230,119.538147 96.967911,119.970840 
	C96.139244,120.222160 95.310585,120.473480 94.174644,120.834114 
z"/>
<path fill="#CB4636" opacity="1.000000" stroke="none" 
	d="
M134.757675,104.790207 
	C134.695480,103.269257 134.633270,101.748299 134.827850,99.509598 
	C135.588516,95.269188 136.243469,91.756088 136.467285,88.215721 
	C136.511429,87.517578 134.894348,86.714417 134.043396,85.959679 
	C134.320892,84.228539 134.598373,82.497406 134.936920,80.385284 
	C130.511322,80.385284 126.611000,80.385284 122.056213,80.385284 
	C122.056213,94.963844 122.056213,109.482597 122.116898,124.461655 
	C121.709633,123.891052 120.863152,122.871544 120.831696,121.827477 
	C120.477081,110.056686 120.254471,98.281960 119.965820,86.509033 
	C119.950035,85.865036 119.663651,85.227676 119.282234,83.935410 
	C119.059082,82.893341 119.056908,82.503090 119.054733,82.112846 
	C121.538101,79.272987 124.699387,78.761528 128.332458,78.889336 
	C135.056168,79.125893 141.796143,78.871330 148.523972,79.038155 
	C150.220184,79.080223 151.896042,79.942482 153.823471,80.734657 
	C148.986145,80.598564 143.906616,80.155647 137.888779,79.630905 
	C137.888779,82.243492 137.889664,84.140686 137.888626,86.037880 
	C137.883453,95.505562 137.920547,104.973656 137.828842,114.440506 
	C137.814117,115.960205 137.223343,117.474327 136.470398,118.522858 
	C135.613846,113.633194 135.185760,109.211700 134.757675,104.790207 
z"/>
<path fill="#D83420" opacity="1.000000" stroke="none" 
	d="
M108.977264,124.006836 
	C108.476562,124.251930 107.975853,124.497032 107.227211,124.383057 
	C106.998314,100.679001 107.017349,77.334000 107.036385,53.989002 
	C107.466545,53.990669 107.896698,53.992336 108.663254,54.462486 
	C108.992188,77.956253 108.984726,100.981544 108.977264,124.006836 
z"/>
<path fill="#FFF7F6" opacity="1.000000" stroke="none" 
	d="
M92.888000,75.668594 
	C92.466827,75.720367 92.045654,75.772141 90.971420,75.624054 
	C85.266830,75.273216 80.215302,75.122238 75.163780,74.971260 
	C74.306496,71.313522 75.665833,69.702454 79.490883,69.979233 
	C84.045921,70.308838 88.616180,70.428146 93.559158,70.814835 
	C93.972145,71.447868 94.005829,71.904633 93.803780,72.921219 
	C93.341362,74.210220 93.114677,74.939407 92.888000,75.668594 
z"/>
<path fill="#FEBAAA" opacity="1.000000" stroke="none" 
	d="
M117.295204,124.866699 
	C116.913788,103.187248 116.877045,81.491608 116.787727,59.796177 
	C116.778252,57.495533 116.460518,55.196156 116.394272,52.398262 
	C116.681953,51.869923 116.861145,51.839512 117.040329,51.809105 
	C117.259499,52.071236 117.478668,52.333366 117.790451,53.265686 
	C117.936699,76.945633 117.990334,99.955383 118.043976,122.965134 
	C117.904221,123.593620 117.764465,124.222099 117.295204,124.866699 
z"/>
<path fill="#FFAB9B" opacity="1.000000" stroke="none" 
	d="
M98.849510,52.236465 
	C99.114067,76.110329 99.117699,99.994148 99.110023,124.332253 
	C98.795265,124.666153 98.491821,124.545769 98.096581,123.745483 
	C97.970619,99.717682 97.936440,76.369797 97.902267,53.021904 
	C98.131042,52.763412 98.359818,52.504917 98.849510,52.236465 
z"/>
<path fill="#BE2F1D" opacity="1.000000" stroke="none" 
	d="
M106.958649,53.708961 
	C107.017349,77.334000 106.998314,100.679001 106.968643,124.487038 
	C106.775810,124.950951 106.593605,124.951820 106.182800,124.486496 
	C105.924347,100.030739 105.894485,76.041168 105.864632,52.051598 
	C106.203392,52.510704 106.542152,52.969814 106.958649,53.708961 
z"/>
<path fill="#FFAB9B" opacity="1.000000" stroke="none" 
	d="
M105.620247,52.058914 
	C105.894485,76.041168 105.924347,100.030739 105.909500,124.483459 
	C105.864799,124.946602 105.384575,124.949402 105.155121,124.879700 
	C104.918587,100.912910 104.911499,77.015808 104.906311,52.663921 
	C104.908218,52.209129 105.375862,52.066231 105.620247,52.058914 
z"/>
<path fill="#B13523" opacity="1.000000" stroke="none" 
	d="
M109.130798,124.180153 
	C108.984726,100.981544 108.992188,77.956253 108.985878,54.461617 
	C109.140091,53.729408 109.339760,53.493359 109.759521,53.148880 
	C110.010620,53.432404 110.073326,53.851173 110.057892,55.054543 
	C109.995232,78.860764 110.010712,101.882393 110.026199,124.904022 
	C109.755211,124.752449 109.507919,124.568932 109.130798,124.180153 
z"/>
<path fill="#C0331B" opacity="1.000000" stroke="none" 
	d="
M97.691841,53.374275 
	C97.936440,76.369797 97.970619,99.717682 97.949921,123.532997 
	C97.592201,122.894341 97.289360,121.788261 96.977219,120.326515 
	C96.971230,119.538147 96.974548,119.105453 96.983559,117.876816 
	C96.983429,106.052933 96.977608,95.024979 96.971786,83.997032 
	C96.971512,83.253517 96.971237,82.509995 96.976738,80.947464 
	C96.969383,77.745056 96.956245,75.361679 96.943108,72.978294 
	C96.949608,72.545334 96.956108,72.112381 96.964111,71.355331 
	C97.137543,65.263046 97.309479,59.494846 97.691841,53.374275 
z"/>
<path fill="#C9331A" opacity="1.000000" stroke="none" 
	d="
M118.262787,122.618591 
	C117.990334,99.955383 117.936699,76.945633 117.943573,53.471256 
	C118.339569,57.578480 118.809685,62.145504 118.973595,66.723495 
	C119.145561,71.526848 119.023964,76.340721 119.042694,81.631424 
	C119.056908,82.503090 119.059082,82.893341 119.060959,83.574738 
	C119.043739,94.859558 119.050232,105.853363 118.986565,116.846764 
	C118.976089,118.656113 118.657684,120.463669 118.262787,122.618591 
z"/>
<path fill="#FEBAAA" opacity="1.000000" stroke="none" 
	d="
M110.285187,124.940315 
	C110.010712,101.882393 109.995232,78.860764 110.086075,55.373463 
	C110.420143,57.025463 110.837898,59.142391 110.846230,61.260929 
	C110.928314,82.149452 110.942444,103.038246 111.012604,124.384026 
	C110.880974,124.886269 110.712578,124.931435 110.285187,124.940315 
z"/>
<path fill="#D13D29" opacity="1.000000" stroke="none" 
	d="
M70.054146,117.606567 
	C70.864662,110.245689 71.953201,102.638840 73.041733,95.031998 
	C73.761383,95.070732 74.481026,95.109467 75.200668,95.148209 
	C75.200668,103.433655 75.200668,111.719109 75.230125,120.473495 
	C74.602531,116.709572 73.945480,112.476715 73.117409,107.142120 
	C72.016518,111.181061 71.174339,114.270836 70.054146,117.606567 
z"/>
<path fill="#C63E2B" opacity="1.000000" stroke="none" 
	d="
M45.652802,81.286942 
	C45.934074,95.280617 46.002697,109.637352 46.114742,124.454910 
	C45.588474,122.961296 44.506321,120.999985 44.532394,119.053528 
	C44.699444,106.583878 45.109795,94.117470 45.652802,81.286942 
z"/>
<path fill="#C25F52" opacity="1.000000" stroke="none" 
	d="
M52.513695,123.694122 
	C52.296532,113.037964 52.296532,102.025764 52.296532,91.013557 
	C52.610477,90.961258 52.924427,90.908966 53.238373,90.856667 
	C53.813576,93.993469 54.388783,97.130280 54.889912,100.673203 
	C54.228130,102.613953 53.208855,104.126648 53.129513,105.687126 
	C52.830788,111.562340 52.838139,117.453117 52.513695,123.694122 
z"/>
<path fill="#FFD2C5" opacity="1.000000" stroke="none" 
	d="
M75.097641,75.276344 
	C80.215302,75.122238 85.266830,75.273216 90.654922,75.662460 
	C85.996719,76.240158 81.001945,76.579590 75.548813,76.874023 
	C75.070808,76.413162 75.051163,75.997299 75.097641,75.276344 
z"/>
<path fill="#C63E2B" opacity="1.000000" stroke="none" 
	d="
M58.792152,79.634399 
	C55.300598,79.963089 51.578960,80.003708 47.394188,79.966499 
	C50.808056,79.707893 54.685062,79.527107 58.792152,79.634399 
z"/>
<path fill="#D13D29" opacity="1.000000" stroke="none" 
	d="
M59.341869,125.269058 
	C61.945839,125.053757 64.889297,125.053757 68.168144,125.053757 
	C68.608368,122.629005 68.983688,120.561760 69.579071,118.169472 
	C70.327789,126.104256 69.082191,127.044807 59.341869,125.269058 
z"/>
<path fill="#C63E2B" opacity="1.000000" stroke="none" 
	d="
M61.750984,92.214142 
	C61.051094,88.798073 60.431118,84.881966 59.762524,80.544724 
	C63.943714,83.343414 61.264011,87.825256 61.750984,92.214142 
z"/>
<path fill="#D3402D" opacity="1.000000" stroke="none" 
	d="
M81.094971,125.655426 
	C83.712280,125.227562 86.488823,125.087601 89.655975,124.947113 
	C87.485909,128.543610 84.395500,127.467896 81.094971,125.655426 
z"/>
<path fill="#D3402D" opacity="1.000000" stroke="none" 
	d="
M69.414925,80.461563 
	C69.103539,83.468475 68.445961,86.658859 67.433411,90.024254 
	C67.741867,87.014526 68.405304,83.829773 69.414925,80.461563 
z"/>
<path fill="#D83420" opacity="1.000000" stroke="none" 
	d="
M116.880394,51.504356 
	C116.861145,51.839512 116.681953,51.869923 116.254883,52.012280 
	C114.606522,52.088707 113.206032,52.053185 111.392059,51.957436 
	C112.606041,49.306473 114.569916,49.484818 116.880394,51.504356 
z"/>
<path fill="#D83420" opacity="1.000000" stroke="none" 
	d="
M104.869537,51.637028 
	C103.287437,51.983963 101.566414,52.009823 99.415939,52.002953 
	C100.609306,49.189564 102.584427,49.501823 104.869537,51.637028 
z"/>
<path fill="#D13D29" opacity="1.000000" stroke="none" 
	d="
M76.240135,123.070419 
	C77.345078,123.416046 78.413940,124.115540 79.760635,124.981201 
	C78.045647,126.163460 76.464798,126.262733 76.240135,123.070419 
z"/>
<path fill="#D3402D" opacity="1.000000" stroke="none" 
	d="
M66.696838,91.327705 
	C66.862465,92.601570 66.841827,94.202858 66.458176,95.994522 
	C66.233620,94.674980 66.372101,93.165047 66.696838,91.327705 
z"/>
<path fill="#CB4636" opacity="1.000000" stroke="none" 
	d="
M156.838669,83.887589 
	C156.138855,83.425163 155.422501,82.602226 154.549194,81.482758 
	C155.202194,81.966507 156.012161,82.746788 156.838669,83.887589 
z"/>
<path fill="#C63E2B" opacity="1.000000" stroke="none" 
	d="
M62.017570,94.708038 
	C61.679482,94.483574 61.513393,94.087669 61.386154,93.365395 
	C61.679855,93.538216 61.934715,94.037399 62.017570,94.708038 
z"/>
<path fill="#C25F52" opacity="1.000000" stroke="none" 
	d="
M54.836128,103.160057 
	C55.074146,103.408188 55.189209,103.848129 55.242393,104.626572 
	C55.024734,104.427330 54.868950,103.889603 54.836128,103.160057 
z"/>
<path fill="#D13D29" opacity="1.000000" stroke="none" 
	d="
M75.204178,121.100616 
	C75.533913,121.264526 75.881798,121.741806 76.296127,122.517288 
	C75.982498,122.348328 75.602409,121.881165 75.204178,121.100616 
z"/>
<path fill="#D3402D" opacity="1.000000" stroke="none" 
	d="
M92.994331,122.721939 
	C92.962463,122.338791 93.183754,121.779320 93.655098,121.048225 
	C93.685928,121.432945 93.466705,121.989281 92.994331,122.721939 
z"/>
<path fill="#D3402D" opacity="1.000000" stroke="none" 
	d="
M92.018921,123.769211 
	C91.969345,123.586800 92.155151,123.269539 92.606552,122.854431 
	C92.666199,123.049179 92.460251,123.341774 92.018921,123.769211 
z"/>
<path fill="#D3402D" opacity="1.000000" stroke="none" 
	d="
M90.679581,124.723618 
	C90.681847,124.526619 90.989250,124.226692 91.620560,123.852219 
	C91.624542,124.058678 91.304619,124.339684 90.679581,124.723618 
z"/>
<path fill="#FEBAAA" opacity="1.000000" stroke="none" 
	d="
M110.787354,52.147720 
	C110.991249,52.456524 110.842682,52.696541 110.431931,52.990791 
	C110.330360,52.767708 110.418747,52.445679 110.787354,52.147720 
z"/>
<path fill="#E23118" opacity="1.000000" stroke="none" 
	d="
M134.446869,105.021072 
	C135.185760,109.211700 135.613846,113.633194 136.047668,118.517601 
	C133.421997,118.730476 129.720291,121.043350 129.008942,116.141060 
	C127.920769,108.641724 128.847992,106.729683 134.446869,105.021072 
z"/>
<path fill="#E23219" opacity="1.000000" stroke="none" 
	d="
M133.628647,85.940231 
	C134.894348,86.714417 136.511429,87.517578 136.467285,88.215721 
	C136.243469,91.756088 135.588516,95.269188 134.793747,99.131203 
	C132.891373,99.383492 131.279892,99.296417 129.334824,99.191322 
	C129.334824,95.143227 129.334824,91.300766 129.334824,87.324799 
	C130.547852,86.885750 131.880875,86.403267 133.628647,85.940231 
z"/>
<path fill="#CF3B26" opacity="1.000000" stroke="none" 
	d="
M145.042542,98.328827 
	C144.994034,94.419945 144.994034,90.945717 144.994034,87.174835 
	C146.689758,87.174835 148.063873,87.174835 149.990219,87.174835 
	C149.990219,90.364250 150.211746,93.340202 149.928192,96.267227 
	C149.642105,99.220520 148.272324,100.979240 145.042542,98.328827 
z"/>
<path fill="#E13218" opacity="1.000000" stroke="none" 
	d="
M96.752335,84.346794 
	C96.977608,95.024979 96.983429,106.052933 96.984283,117.551971 
	C96.649704,114.961166 96.038094,111.898621 96.045227,108.837509 
	C96.064011,100.790184 96.352081,92.743500 96.752335,84.346794 
z"/>
<path fill="#E13218" opacity="1.000000" stroke="none" 
	d="
M96.635628,73.112656 
	C96.956245,75.361679 96.969383,77.745056 96.975128,80.575706 
	C92.643990,78.769089 94.601616,75.998543 96.635628,73.112656 
z"/>
<path fill="#FFD2C5" opacity="1.000000" stroke="none" 
	d="
M93.234039,75.652756 
	C93.114677,74.939407 93.341362,74.210220 93.752518,73.261108 
	C93.818024,73.906425 93.699051,74.771667 93.234039,75.652756 
z"/>
</svg>